<?xml version="1.0" encoding="UTF-8" standalone="no"?>
<svg
   width="100"
   height="100"
   viewBox="0 0 376.81378 134.64453"
   version="1.1"
   id="svg306"
   xmlns="http://www.w3.org/2000/svg"
   xmlns:svg="http://www.w3.org/2000/svg">
   <defs
      id="defs26" />
   <path
      fill="none"
      stroke-width="2.89324"
      stroke-linecap="round"
      stroke-linejoin="round"
      stroke="#5154ae"
      stroke-opacity="1"
      stroke-miterlimit="4"
      d="m 155.52734,124.88282 5.71875,-0.88281"
      id="path54" />
   <path
      fill="none"
      stroke-width="2.89324"
      stroke-linecap="round"
      stroke-linejoin="round"
      stroke="#5154ae"
      stroke-opacity="1"
      stroke-miterlimit="4"
      d="m 151.67578,122.23047 -5.17969,2.58204"
      id="path74" />
   <path
      fill="none"
      stroke-width="2.89324"
      stroke-linecap="round"
      stroke-linejoin="round"
      stroke="#5154ae"
      stroke-opacity="1"
      stroke-miterlimit="4"
      d="m 144.96093,123.19922 3.40235,-4.67968"
      id="path112" />
   <path
      fill="none"
      stroke-width="2.89324"
      stroke-linecap="round"
      stroke-linejoin="round"
      stroke="#5154ae"
      stroke-opacity="1"
      stroke-miterlimit="4"
      d="m 145.1914,108.84376 -0.92578,5.71093"
      id="path154" />
   <path
      fill="none"
      stroke-width="2.89324"
      stroke-linecap="round"
      stroke-linejoin="round"
      stroke="#5154ae"
      stroke-opacity="1"
      stroke-miterlimit="4"
      d="m 133.55859,111.78516 -2.87891,-5.01953"
      id="path170" />
   <path
      fill="none"
      stroke-width="2.89324"
      stroke-linecap="round"
      stroke-linejoin="round"
      stroke="#5154ae"
      stroke-opacity="1"
      stroke-miterlimit="4"
      d="m 125.51562,114.38282 4.62891,3.46875"
      id="path242" />
   <path
      fill="none"
      stroke-width="2.89324"
      stroke-linecap="butt"
      stroke-linejoin="miter"
      stroke="#5154ae"
      stroke-opacity="1"
      stroke-miterlimit="10"
      d="m 140.54687,122.42969 5.5625,1.60547"
      id="path258" />
   <path
      fill-rule="nonzero"
      fill="#feece0"
      fill-opacity="1"
      d="m 244.07812,120.33204 c 0,2.87109 -2.33203,5.20312 -5.20312,5.20312 H 49.48437 c -2.87109,0 -5.20312,-2.33203 -5.20312,-5.20312 V 8.2070383 c 0,-2.8711 2.33203,-5.20313 5.20312,-5.20313 H 238.875 c 2.87109,0 5.20312,2.33203 5.20312,5.20313 V 120.33204"
      id="path292" />
   <path
         d="m 52.96875,8.1523483 c -1.16797,0 -2.11719,0.94922 -2.11719,2.1171897 V 118.26954 c 0,1.16797 0.94922,2.11718 2.11719,2.11718 h 182.42187 c 1.16797,0 2.11719,-0.94921 2.11719,-2.11718 V 10.269538 c 0,-1.1679697 -0.94922,-2.1171897 -2.11719,-2.1171897 z M 238.875,128.53907 H 49.48437 c -4.52344,0 -8.20703,-3.6836 -8.20703,-8.20703 V 8.2070383 c 0,-4.52344 3.68359,-8.207030024266 8.20703,-8.207030024266 H 238.875 c 4.52343,0 8.20703,3.683590024266 8.20703,8.207030024266 V 120.33204 c 0,4.52343 -3.6836,8.20703 -8.20703,8.20703"
      id="path294" />
   <path
      fill-rule="nonzero"
      fill="#323590"
      fill-opacity="1"
      d="M 0.4218698,118.07813 C 0.1484298,118.90626 -1.9869157e-7,119.78907 -1.9869157e-7,120.70704 v 5.46484 c 0,4.67969 3.79295999869157,8.47266 8.46874999869157,8.47266 H 279.88671 c 4.67969,0 8.47266,-3.79297 8.47266,-8.47266 v -5.46484 c 0,-0.91797 -0.14844,-1.80078 -0.42187,-2.62891 H 0.4218698"
      id="path296" />
   <path
      fill-rule="nonzero"
      fill="#161a36"
      fill-opacity="1"
      d="m 110.66015,118.07813 v 5.63281 c 0,3.08594 2.5,5.58985 5.58594,5.58985 h 55.86719 c 3.08593,0 5.58593,-2.50391 5.58593,-5.58985 v -5.63281 h -67.03906"
      id="path298" />
   <path
      fill-rule="nonzero"
      fill="#f89555"
      fill-opacity="1"
      d="m 109.94921,86.128908 c 1.39063,0 2.01563,-0.60937 2.01563,-2.01562 v -6.65625 c 0,-1.39063 -0.625,-2.01563 -2.01563,-2.01563 h -11.25 c -2.34375,0 -3.40625,-0.82812 -3.40625,-2.6875 v -13.3125 c 0,-1.89062 1.0625,-2.79687 3.40625,-2.79687 h 11.25 c 1.39063,0 2.01563,-0.60938 2.01563,-2.01563 v -6.76562 c 0,-1.39063 -0.625,-2.01563 -2.01563,-2.01563 H 96.29296 c -9.39062,0 -13.75,3.64063 -13.75,11.46875 v 17.40625 c 0,7.76563 4.35938,11.40625 13.75,11.40625 z m 0,0"
      id="path300" />
   <path
      fill-rule="nonzero"
      fill="#f89555"
      fill-opacity="1"
      d="m 133.71875,55.925788 h 4.20312 c 1.95313,0 2.45313,1.10937 2.45313,2.625 v 1.90625 c 0,1.5 -0.5,2.625 -2.45313,2.625 h -4.20312 z m -2.01563,30.20312 c 1.40625,0 2.01563,-0.60937 2.01563,-2.01562 v -10.96875 h 7.82812 c 1.57813,0 2.125,0.73437 2.125,2.40625 v 8.5625 c 0,1.40625 0.625,2.01562 2.01563,2.01562 h 8.67187 c 1.40625,0 2.01563,-0.60937 2.01563,-2.01562 v -11.85938 c 0,-4.70312 -2.6875,-7.65625 -6.76563,-8.10937 2.34375,-1 3.125,-3.25 3.125,-6.375 v -2.57813 c 0,-5.53125 -2.625,-9.34375 -11.01562,-9.34375 h -18.625 c -1.40625,0 -2.01563,0.625 -2.01563,2.01563 v 36.25 c 0,1.40625 0.60938,2.01562 2.01563,2.01562 z m 0,0"
      id="path302" />
   <path
      fill-rule="nonzero"
      fill="#f89555"
      fill-opacity="1"
      d="m 175.77734,86.128908 c 1.40625,0 2.01562,-0.60937 2.01562,-2.01562 v -19.6875 l 3.29688,6.09375 c 0.67187,1.29687 1.51562,1.79687 2.96875,1.79687 h 2.23437 c 1.45313,0 2.29688,-0.5 2.96875,-1.79687 l 3.29688,-6.09375 v 19.6875 c 0,1.40625 0.5625,2.01562 2.01562,2.01562 h 8.625 c 1.39063,0 2,-0.60937 2,-2.01562 v -36.25 c 0,-1.39063 -0.60937,-2.01563 -2,-2.01563 h -9.0625 c -1.1875,0 -1.90625,0.45313 -2.57812,1.6875 l -4.98438,9.10938 c -0.39062,0.67187 -0.5625,0.95312 -1,0.95312 h -0.5 c -0.45312,0 -0.625,-0.28125 -1.01562,-0.95312 l -5.03125,-9.10938 c -0.67188,-1.23437 -1.40625,-1.6875 -2.57813,-1.6875 h -9 c -1.40625,0 -2.01562,0.625 -2.01562,2.01563 v 36.25 c 0,1.40625 0.60937,2.01562 2.01562,2.01562 z m 0,0"
      id="path304" />
   </svg>
